# xmcd
#
# Track frame offsets:
#	182
#	15530
#	38897
#	61455
#	80880
#	91782
#	106947
#	121770
#	138800
#	163012
#	180537
#	195692
#
# Disc length: 2810 seconds
# Revision: 2
# Processed by: cddbd v1.5.2PL0 Copyright (c) Steve Scherf et al.
# Submitted via: dBpowerAMP V12.0
#
DISCID=940af80c
DTITLE=Norma O'Hara Murphy - Vanishing Horsemen
DYEAR=1900
DGENRE=Country
TTITLE0=The Vanishing Horsemen
TTITLE1=The Old Brigade
TTITLE2=The Outlaw and The Lady
TTITLE3=Stumpy
TTITLE4=Along The Riverina
TTITLE5=The Campdrafter
TTITLE6=The Clydesdale
TTITLE7=The Old Dreamer
TTITLE8=How The Fire Queen Crossed The Swamp
TTITLE9=R.M.
TTITLE10=Phar Lap
TTITLE11=Leave Him in The Longyard
EXTD=
EXTT0=
EXTT1=
EXTT2=
EXTT3=
EXTT4=
EXTT5=
EXTT6=
EXTT7=
EXTT8=
EXTT9=
EXTT10=
EXTT11=
PLAYORDER=
